<?xml version="1.0" encoding="utf-8"?>
<!-- Generator: Adobe Illustrator 23.0.1, SVG Export Plug-In . SVG Version: 6.00 Build 0)  -->
<svg version="1.1" id="Layer_1" xmlns="http://www.w3.org/2000/svg" xmlns:xlink="http://www.w3.org/1999/xlink" x="0px" y="0px"
	 viewBox="0 0 600 600" style="enable-background:new 0 0 600 600;" xml:space="preserve">
<style type="text/css">
	.st0{fill:#06352E;}
	.st1{fill:#17846F;}
</style>
<title>tt19dark</title>
<g>
	<path class="st0" d="M436.7,211.1c0-1.4-0.4-2.8-1.2-3.9c-1.7-1.9-4.6-2.1-6.5-0.5c-0.2,0.1-0.3,0.3-0.5,0.5
		c-0.8,1.1-1.3,2.5-1.2,3.9v11.8c0,1.7,0.7,3.4,2,4.6c0.7,0.6,1.7,0.9,2.6,0.9c2.4,0,3.9-1.3,4.5-3.8c0.1-0.6,0.2-1.2,0.2-1.8
		L436.7,211.1z"/>
	<path class="st0" d="M373.6,464.4c-0.6-0.3-1.3-0.5-1.9-0.8c-1.3-0.6-2.5-1.2-3.7-1.9s-2.4-1.4-3.6-2.1l-0.2-0.2
		c-0.5-0.4-1.1-0.7-1.6-1.1l-0.3-0.1c-0.6-0.4-0.9-0.8-1.5-1.2c-3.2-2.4-6.1-5.1-8.9-8c-12.1-12.7-18-26.7-18-42.5
		c0-5.2,1.3-10.8,2.9-15.7c4.4-13.3,11.7-23,22.4-29.6c0.6-0.4,1.3-0.8,2-1.1c8.6-4.8,19-7.4,31-7.8c-0.1-9.1-0.1-17.5-0.2-26.6
		h-3.4c-16,0-30.5,3.4-43.2,11.3H318c-18.4,0-33.3-14.9-33.3-33.3l0,0c0-18.4,14.9-33.3,33.3-33.3h163c-1-8-4.4-24.1-4.4-24.1
		c-3.8-14.2-9.2-27.9-16.1-40.9l-0.2,0.1c-2.5-4.8-5.1-9.5-8-14c-20.6-32.1-50-57.5-84.7-73.3l-0.1,0.1c-2-0.9-6.6-2.9-13.2-5.3
		c-11.6,11.3-36.5,31.4-75.3,43l106.3,0.6v38.1H252.7v167.2c1.7,1.2,3.4,2.5,4.8,4c2.5,2.7,4.8,5.6,6.7,8.8l0.6,1
		c8.5,14.1,10,29.1,9.5,33.1c-0.6,4.9-5.8,6.7-1.1,14.8c2.8,4.8,6.9,11.3,9.8,15.9c1.3,2,0.7,4.7-1.3,5.9c-0.5,0.3-1,0.5-1.5,0.6
		l-4,0.7c-1.6,0.3-2.7,1.9-2.4,3.5l0,0c0.4,2,0.7,4.1,0.9,6.2c0,2-5.4,5.1-5.4,5.1s4,2.3,1.8,4.9s-4.3,2.8-3.8,6.9
		c0.4,3.6,3,11-7.5,12.4c9.3,0.8,21.3,1.3,28.8,1.3c19.3,0,38.4-2.9,56.8-8.5c11.2-3.5,19.6-7.7,29.8-13.2c-0.6-0.2-1.2-0.4-1.8-0.7
		L373.6,464.4z M417.5,244.1h9.8v1.6c-0.1,1.4,0.4,2.8,1.2,3.9c1.7,1.9,4.7,2.1,6.6,0.4c0.1-0.1,0.3-0.2,0.4-0.4
		c0.8-1.1,1.3-2.5,1.2-3.9v-12.6c-1.9,1.9-4.5,2.9-7.2,3c-4.1,0-7.2-1.5-9.3-4.4c-1.8-2.6-2.8-6.1-2.8-10.6v-11l0,0
		c0.1-2.8,1-5.5,2.5-7.9c1.5-2.3,3.7-4.1,6.2-5.2c1.8-0.7,3.6-1.1,5.5-1.1c3.9-0.1,7.7,1.6,10.3,4.5c2.6,2.9,4.1,6.6,4,10.5v34.4
		c0.1,3.9-1.4,7.8-4.1,10.6c-5.4,5.6-14.4,5.8-20,0.4c-0.2-0.2-0.4-0.3-0.5-0.5c-2.6-2.9-4-6.6-3.9-10.5L417.5,244.1z M391.8,204.7
		c2.3-0.3,4.6-1.2,6.5-2.6c1.9-1.3,3.5-3.2,4.5-5.3h6.6v62.9h-9.5v-48.4h-8L391.8,204.7z"/>
	<path class="st1" d="M211.3,194.9v70.4c0-38.9-31.5-70.4-70.4-70.4C140.9,194.9,211.3,194.9,211.3,194.9z"/>
	<path class="st0" d="M210.8,298.5h0.6v-33.3c0-38.8-31.5-70.3-70.4-70.3h-6.1l-0.1,0.3c-2.2,4.5-28.4,61.2,6.8,140.4
		c12.6,28.3,33,57.6,65.1,90.2l4.7-3.1v-80.6h-0.6c-12.1,0-21.8-9.8-21.9-21.8C188.9,308.3,198.7,298.5,210.8,298.5
		C210.7,298.5,210.7,298.5,210.8,298.5L210.8,298.5z"/>
	<path class="st1" d="M482.7,295.1c0-1.6,0-3.1-0.1-4.6H319.4c-7.6,0-13.7,6.1-13.7,13.7l0,0l0,0c0,7.6,6.1,13.7,13.7,13.7l0,0h116
		v20.6c-3-2.3-6.2-4.3-9.5-6c-9.2-4.4-19.2-6.6-29.4-6.5c-1.1-0.1-2.2-0.2-3.3-0.4l-0.6-0.1h-4.4c-16,0-30.5,4-43.2,11.9
		c-2.3,1.4-4.5,3-6.6,4.6c-14.4,10.9-24.2,25.9-29,44.3c-1.9,7-2.9,14.2-2.9,21.4c0,20.1,6.9,38.5,20.3,54.4
		c5.2,6.4,11.4,12,18.2,16.6c11.2-3.5,20.3-8,30.5-13.5c-0.6-0.2-1.2-0.4-1.8-0.7h-0.1c-0.6-0.3-1.3-0.5-1.9-0.8
		c-1.3-0.6-2.5-1.2-3.7-1.9s-2.4-1.4-3.6-2.1l-0.2-0.2c-0.5-0.4-1.1-0.7-1.6-1.1l0,0c-0.6-0.4-1.2-0.9-1.8-1.3
		c-3.2-2.4-6.1-5.1-8.9-8c-12.1-12.7-18-26.7-18-42.5c0-5.2,0.9-10.4,2.5-15.4c4.4-13.3,11.7-23,22.4-29.6c0.6-0.4,1.3-0.8,2-1.1
		c9.4-5.2,20.9-7.9,34.4-7.9c7.7,0,17,3.7,27.8,11.1c3.2,2.3,7.4,5.6,12.5,9.9v53l14-17.9c1.2-1.6,2.3-3.3,3.4-5.1l10.3-19v-66.8
		h18.1C482.2,310.2,482.7,302.7,482.7,295.1z"/>
	<path class="st1" d="M230.7,309.5c-3.9-7.1-11.3-11.4-19.4-11.4v44.2c12.2,0,22.1-9.9,22.1-22.1
		C233.4,316.4,232.4,312.7,230.7,309.5L230.7,309.5z"/>
	<rect x="385.2" y="189.8" class="st0" width="62.9" height="75.4"/>
	<path class="st0" d="M134.5,195.1c0,0-30.2,53.5-10.4,99.8c0,0,2.4,4.3,1,14.9c-1.4,10.6-7.1,54.7-7.1,54.7s-0.7,11.2,10.5,8.6
		s8.8-2,8.8-2c2.9-0.4,5.6,1.6,6.1,4.5c1.3,5.3,3.3,11.9,3.3,11.9s1.6,5,13.8,4.9c0,0-6.4,8.4,2.4,11.1s10.1,4.9,11.7,11.9
		s8,23.2,31.8,10.6L134.5,195.1z"/>
</g>
</svg>
